4d 54 68 64 00 00 00 06 00 01 00 01 03 48 
4d 54 72 6b 00 00 09 0b 00 

ff 51 03 0f 42 40 00 

ff 21 01 00 00 b0 07 40 00 
ff 21 01 00 00 b1 07 40 00 
ff 21 01 00 00 b2 07 40 00 
ff 21 01 00 00 b3 07 40 00 
ff 21 01 00 00 b4 07 40 00 
ff 21 01 00 00 b5 07 40 00 
ff 21 01 00 00 b6 07 40 00 
ff 21 01 00 00 b7 07 40 00 
ff 21 01 00 00 b8 07 40 00 
ff 21 01 00 00 b9 07 40 00 
ff 21 01 00 00 ba 07 40 00 
ff 21 01 00 00 bb 07 40 00 
ff 21 01 00 00 bc 07 40 00 
ff 21 01 00 00 bd 07 40 00 
ff 21 01 00 00 be 07 40 00 
ff 21 01 00 00 bf 07 40 00 
ff 21 01 01 00 b0 07 40 00 
ff 21 01 01 00 b1 07 40 00 
ff 21 01 01 00 b2 07 40 00 
ff 21 01 01 00 b3 07 40 00 
ff 21 01 01 00 b4 07 40 00 
ff 21 01 01 00 b5 07 40 00 
ff 21 01 01 00 b6 07 40 00 
ff 21 01 01 00 b7 07 40 00 
ff 21 01 01 00 b8 07 40 00 
ff 21 01 01 00 b9 07 40 00 
ff 21 01 01 00 ba 07 40 00 
ff 21 01 01 00 bb 07 40 00 
ff 21 01 01 00 bc 07 40 00 
ff 21 01 01 00 bd 07 40 00 
ff 21 01 01 00 be 07 40 00 
ff 21 01 01 00 bf 07 40 00 
ff 21 01 02 00 b0 07 40 00 
ff 21 01 02 00 b1 07 40 00 
ff 21 01 02 00 b2 07 40 00 
ff 21 01 02 00 b3 07 40 00 
ff 21 01 02 00 b4 07 40 00 
ff 21 01 02 00 b5 07 40 00 
ff 21 01 02 00 b6 07 40 00 
ff 21 01 02 00 b7 07 40 00 
ff 21 01 02 00 b8 07 40 00 
ff 21 01 02 00 b9 07 40 00 
ff 21 01 02 00 ba 07 40 00 
ff 21 01 02 00 bb 07 40 00 
ff 21 01 02 00 bc 07 40 00 
ff 21 01 02 00 bd 07 40 00 
ff 21 01 02 00 be 07 40 00 
ff 21 01 02 00 bf 07 40 00 
ff 21 01 03 00 b0 07 40 00 
ff 21 01 03 00 b1 07 40 00 
ff 21 01 03 00 b2 07 40 00 
ff 21 01 03 00 b3 07 40 00 
ff 21 01 03 00 b4 07 40 00 
ff 21 01 03 00 b5 07 40 00 
ff 21 01 03 00 b6 07 40 00 
ff 21 01 03 00 b7 07 40 00 
ff 21 01 03 00 b8 07 40 00 
ff 21 01 03 00 b9 07 40 00 
ff 21 01 03 00 ba 07 40 00 
ff 21 01 03 00 bb 07 40 00 
ff 21 01 03 00 bc 07 40 00 
ff 21 01 03 00 bd 07 40 00 
ff 21 01 03 00 be 07 40 00 
ff 21 01 03 00 bf 07 40 00 
ff 21 01 04 00 b0 07 40 00 
ff 21 01 04 00 b1 07 40 00 
ff 21 01 04 00 b2 07 40 00 
ff 21 01 04 00 b3 07 40 00 
ff 21 01 04 00 b4 07 40 00 
ff 21 01 04 00 b5 07 40 00 
ff 21 01 04 00 b6 07 40 00 
ff 21 01 04 00 b7 07 40 00 
ff 21 01 04 00 b8 07 40 00 
ff 21 01 04 00 b9 07 40 00 
ff 21 01 04 00 ba 07 40 00 
ff 21 01 04 00 bb 07 40 00 
ff 21 01 04 00 bc 07 40 00 
ff 21 01 04 00 bd 07 40 00 
ff 21 01 04 00 be 07 40 00 
ff 21 01 04 00 bf 07 40 00 
ff 21 01 05 00 b0 07 40 00 
ff 21 01 05 00 b1 07 40 00 
ff 21 01 05 00 b2 07 40 00 
ff 21 01 05 00 b3 07 40 00 
ff 21 01 05 00 b4 07 40 00 
ff 21 01 05 00 b5 07 40 00 
ff 21 01 05 00 b6 07 40 00 
ff 21 01 05 00 b7 07 40 00 
ff 21 01 05 00 b8 07 40 00 
ff 21 01 05 00 b9 07 40 00 
ff 21 01 05 00 ba 07 40 00 
ff 21 01 05 00 bb 07 40 00 
ff 21 01 05 00 bc 07 40 00 
ff 21 01 05 00 bd 07 40 00 
ff 21 01 05 00 be 07 40 00 
ff 21 01 05 00 bf 07 40 00 
ff 21 01 06 00 b0 07 40 00 
ff 21 01 06 00 b1 07 40 00 
ff 21 01 06 00 b2 07 40 00 
ff 21 01 06 00 b3 07 40 00 
ff 21 01 06 00 b4 07 40 00 
ff 21 01 06 00 b5 07 40 00 
ff 21 01 06 00 b6 07 40 00 
ff 21 01 06 00 b7 07 40 00 
ff 21 01 06 00 b8 07 40 00 
ff 21 01 06 00 b9 07 40 00 
ff 21 01 06 00 ba 07 40 00 
ff 21 01 06 00 bb 07 40 00 
ff 21 01 06 00 bc 07 40 00 
ff 21 01 06 00 bd 07 40 00 
ff 21 01 06 00 be 07 40 00 
ff 21 01 06 00 bf 07 40 00 
ff 21 01 07 00 b0 07 40 00 
ff 21 01 07 00 b1 07 40 00 
ff 21 01 07 00 b2 07 40 00 
ff 21 01 07 00 b3 07 40 00 
ff 21 01 07 00 b4 07 40 00 
ff 21 01 07 00 b5 07 40 00 
ff 21 01 07 00 b6 07 40 00 
ff 21 01 07 00 b7 07 40 00 
ff 21 01 07 00 b8 07 40 00 
ff 21 01 07 00 b9 07 40 00 
ff 21 01 07 00 ba 07 40 00 
ff 21 01 07 00 bb 07 40 00 
ff 21 01 07 00 bc 07 40 00 
ff 21 01 07 00 bd 07 40 00 
ff 21 01 07 00 be 07 40 00 
ff 21 01 07 00 bf 07 40 00 
ff 21 01 00 00 e0 00 40 00 
ff 21 01 00 00 e1 00 40 00 
ff 21 01 00 00 e2 00 40 00 
ff 21 01 00 00 e3 00 40 00 
ff 21 01 00 00 e4 00 40 00 
ff 21 01 00 00 e5 00 40 00 
ff 21 01 00 00 e6 00 40 00 
ff 21 01 00 00 e7 00 40 00 
ff 21 01 00 00 e8 00 40 00 
ff 21 01 00 00 e9 00 40 00 
ff 21 01 00 00 ea 00 40 00 
ff 21 01 00 00 eb 00 40 00 
ff 21 01 00 00 ec 00 40 00 
ff 21 01 00 00 ed 00 40 00 
ff 21 01 00 00 ee 00 40 00 
ff 21 01 00 00 ef 00 40 00 
ff 21 01 01 00 e0 00 40 00 
ff 21 01 01 00 e1 00 40 00 
ff 21 01 01 00 e2 00 40 00 
ff 21 01 01 00 e3 00 40 00 
ff 21 01 01 00 e4 00 40 00 
ff 21 01 01 00 e5 00 40 00 
ff 21 01 01 00 e6 00 40 00 
ff 21 01 01 00 e7 00 40 00 
ff 21 01 01 00 e8 00 40 00 
ff 21 01 01 00 e9 00 40 00 
ff 21 01 01 00 ea 00 40 00 
ff 21 01 01 00 eb 00 40 00 
ff 21 01 01 00 ec 00 40 00 
ff 21 01 01 00 ed 00 40 00 
ff 21 01 01 00 ee 00 40 00 
ff 21 01 01 00 ef 00 40 00 
ff 21 01 02 00 e0 00 40 00 
ff 21 01 02 00 e1 00 40 00 
ff 21 01 02 00 e2 00 40 00 
ff 21 01 02 00 e3 00 40 00 
ff 21 01 02 00 e4 00 40 00 
ff 21 01 02 00 e5 00 40 00 
ff 21 01 02 00 e6 00 40 00 
ff 21 01 02 00 e7 00 40 00 
ff 21 01 02 00 e8 00 40 00 
ff 21 01 02 00 e9 00 40 00 
ff 21 01 02 00 ea 00 40 00 
ff 21 01 02 00 eb 00 40 00 
ff 21 01 02 00 ec 00 40 00 
ff 21 01 02 00 ed 00 40 00 
ff 21 01 02 00 ee 00 40 00 
ff 21 01 02 00 ef 00 40 00 
ff 21 01 03 00 e0 00 40 00 
ff 21 01 03 00 e1 00 40 00 
ff 21 01 03 00 e2 00 40 00 
ff 21 01 03 00 e3 00 40 00 
ff 21 01 03 00 e4 00 40 00 
ff 21 01 03 00 e5 00 40 00 
ff 21 01 03 00 e6 00 40 00 
ff 21 01 03 00 e7 00 40 00 
ff 21 01 03 00 e8 00 40 00 
ff 21 01 03 00 e9 00 40 00 
ff 21 01 03 00 ea 00 40 00 
ff 21 01 03 00 eb 00 40 00 
ff 21 01 03 00 ec 00 40 00 
ff 21 01 03 00 ed 00 40 00 
ff 21 01 03 00 ee 00 40 00 
ff 21 01 03 00 ef 00 40 00 
ff 21 01 04 00 e0 00 40 00 
ff 21 01 04 00 e1 00 40 00 
ff 21 01 04 00 e2 00 40 00 
ff 21 01 04 00 e3 00 40 00 
ff 21 01 04 00 e4 00 40 00 
ff 21 01 04 00 e5 00 40 00 
ff 21 01 04 00 e6 00 40 00 
ff 21 01 04 00 e7 00 40 00 
ff 21 01 04 00 e8 00 40 00 
ff 21 01 04 00 e9 00 40 00 
ff 21 01 04 00 ea 00 40 00 
ff 21 01 04 00 eb 00 40 00 
ff 21 01 04 00 ec 00 40 00 
ff 21 01 04 00 ed 00 40 00 
ff 21 01 04 00 ee 00 40 00 
ff 21 01 04 00 ef 00 40 00 
ff 21 01 05 00 e0 00 40 00 
ff 21 01 05 00 e1 00 40 00 
ff 21 01 05 00 e2 00 40 00 
ff 21 01 05 00 e3 00 40 00 
ff 21 01 05 00 e4 00 40 00 
ff 21 01 05 00 e5 00 40 00 
ff 21 01 05 00 e6 00 40 00 
ff 21 01 05 00 e7 00 40 00 
ff 21 01 05 00 e8 00 40 00 
ff 21 01 05 00 e9 00 40 00 
ff 21 01 05 00 ea 00 40 00 
ff 21 01 05 00 eb 00 40 00 
ff 21 01 05 00 ec 00 40 00 
ff 21 01 05 00 ed 00 40 00 
ff 21 01 05 00 ee 00 40 00 
ff 21 01 05 00 ef 00 40 00 
ff 21 01 06 00 e0 00 40 00 
ff 21 01 06 00 e1 00 40 00 
ff 21 01 06 00 e2 00 40 00 
ff 21 01 06 00 e3 00 40 00 
ff 21 01 06 00 e4 00 40 00 
ff 21 01 06 00 e5 00 40 00 
ff 21 01 06 00 e6 00 40 00 
ff 21 01 06 00 e7 00 40 00 
ff 21 01 06 00 e8 00 40 00 
ff 21 01 06 00 e9 00 40 00 
ff 21 01 06 00 ea 00 40 00 
ff 21 01 06 00 eb 00 40 00 
ff 21 01 06 00 ec 00 40 00 
ff 21 01 06 00 ed 00 40 00 
ff 21 01 06 00 ee 00 40 00 
ff 21 01 06 00 ef 00 40 00 
ff 21 01 07 00 e0 00 40 00 
ff 21 01 07 00 e1 00 40 00 
ff 21 01 07 00 e2 00 40 00 
ff 21 01 07 00 e3 00 40 00 
ff 21 01 07 00 e4 00 40 00 
ff 21 01 07 00 e5 00 40 00 
ff 21 01 07 00 e6 00 40 00 
ff 21 01 07 00 e7 00 40 00 
ff 21 01 07 00 e8 00 40 00 
ff 21 01 07 00 e9 00 40 00 
ff 21 01 07 00 ea 00 40 00 
ff 21 01 07 00 eb 00 40 00 
ff 21 01 07 00 ec 00 40 00 
ff 21 01 07 00 ed 00 40 00 
ff 21 01 07 00 ee 00 40 00 
ff 21 01 07 00 ef 00 40 00 

ff 2f 00
